<svg width="37" height="36" viewBox="0 0 37 36" fill="none" xmlns="http://www.w3.org/2000/svg">
<circle cx="18.0236" cy="18" r="15" fill="#C13584"/>
<path d="M18.0236 10.6216C20.4267 10.6216 20.7114 10.6308 21.6604 10.6741C22.5379 10.7141 23.0144 10.8607 23.3316 10.984C23.7517 11.1472 24.0515 11.3423 24.3664 11.6572C24.6813 11.9721 24.8764 12.2719 25.0396 12.692C25.1629 13.0092 25.3095 13.4857 25.3495 14.3632C25.3928 15.3122 25.402 15.5969 25.402 18C25.402 20.4031 25.3928 20.6877 25.3495 21.6367C25.3095 22.5142 25.1629 22.9908 25.0396 23.3079C24.8764 23.728 24.6813 24.0278 24.3664 24.3427C24.0515 24.6577 23.7517 24.8527 23.3316 25.016C23.0144 25.1392 22.5379 25.2858 21.6604 25.3258C20.7115 25.3691 20.4269 25.3783 18.0236 25.3783C15.6203 25.3783 15.3358 25.3691 14.3868 25.3258C13.5094 25.2858 13.0328 25.1392 12.7157 25.016C12.2956 24.8527 11.9958 24.6577 11.6809 24.3427C11.3659 24.0278 11.1709 23.728 11.0076 23.3079C10.8844 22.9908 10.7377 22.5142 10.6977 21.6367C10.6544 20.6877 10.6452 20.4031 10.6452 18C10.6452 15.5969 10.6544 15.3122 10.6977 14.3632C10.7377 13.4857 10.8844 13.0092 11.0076 12.692C11.1709 12.2719 11.3659 11.9721 11.6809 11.6572C11.9958 11.3423 12.2956 11.1472 12.7157 10.984C13.0328 10.8607 13.5094 10.7141 14.3868 10.6741C15.3359 10.6308 15.6205 10.6216 18.0236 10.6216ZM18.0236 9C15.5794 9 15.2729 9.01036 14.3129 9.05416C13.355 9.09785 12.7007 9.25001 12.1283 9.47247C11.5364 9.70247 11.0345 10.0102 10.5342 10.5105C10.0338 11.0109 9.72609 11.5128 9.49613 12.1046C9.27363 12.6771 9.12147 13.3314 9.07778 14.2893C9.03398 15.2492 9.02362 15.5557 9.02362 18C9.02362 20.4442 9.03398 20.7507 9.07778 21.7106C9.12147 22.6686 9.27363 23.3228 9.49613 23.8953C9.72609 24.4871 10.0338 24.989 10.5342 25.4894C11.0345 25.9897 11.5364 26.2975 12.1283 26.5274C12.7007 26.7499 13.355 26.9021 14.3129 26.9458C15.2729 26.9896 15.5794 26.9999 18.0236 26.9999C20.4679 26.9999 20.7744 26.9896 21.7343 26.9458C22.6923 26.9021 23.3465 26.7499 23.919 26.5274C24.5108 26.2975 25.0127 25.9897 25.5131 25.4894C26.0134 24.989 26.3211 24.4871 26.5511 23.8953C26.7736 23.3228 26.9258 22.6686 26.9695 21.7106C27.0133 20.7507 27.0236 20.4442 27.0236 18C27.0236 15.5557 27.0133 15.2492 26.9695 14.2893C26.9258 13.3314 26.7736 12.6771 26.5511 12.1046C26.3211 11.5128 26.0134 11.0109 25.5131 10.5105C25.0127 10.0102 24.5108 9.70247 23.919 9.47247C23.3465 9.25001 22.6923 9.09785 21.7343 9.05416C20.7744 9.01036 20.4679 9 18.0236 9Z" fill="white"/>
<path d="M18.0278 13.3823C15.4753 13.3823 13.4062 15.4515 13.4062 18.0039C13.4062 20.5564 15.4753 22.6255 18.0278 22.6255C20.5803 22.6255 22.6494 20.5564 22.6494 18.0039C22.6494 15.4515 20.5803 13.3823 18.0278 13.3823ZM18.0278 21.0039C16.3709 21.0039 15.0278 19.6608 15.0278 18.0039C15.0278 16.3471 16.3709 15.0039 18.0278 15.0039C19.6847 15.0039 21.0278 16.3471 21.0278 18.0039C21.0278 19.6608 19.6847 21.0039 18.0278 21.0039Z" fill="white"/>
<path d="M23.9117 13.1972C23.9117 13.7936 23.4282 14.2772 22.8317 14.2772C22.2353 14.2772 21.7517 13.7936 21.7517 13.1972C21.7517 12.6007 22.2353 12.1172 22.8317 12.1172C23.4282 12.1172 23.9117 12.6007 23.9117 13.1972Z" fill="white"/>
</svg>
