<svg width="37" height="36" viewBox="0 0 37 36" fill="none" xmlns="http://www.w3.org/2000/svg">
<circle cx="18.0236" cy="18" r="15" fill="#0077B5"/>
<path fill-rule="evenodd" clip-rule="evenodd" d="M14.1047 10.7129C14.1047 11.6467 13.3937 12.4025 12.2817 12.4025C11.2131 12.4025 10.5021 11.6467 10.5241 10.7129C10.5021 9.73371 11.2131 9 12.303 9C13.3936 9 14.0834 9.73371 14.1047 10.7129ZM10.6135 24.6143V13.7372H13.994V24.6136H10.6135V24.6143Z" fill="white"/>
<path fill-rule="evenodd" clip-rule="evenodd" d="M16.7035 17.2086C16.7035 15.8519 16.6588 14.6952 16.6141 13.7387H19.5503L19.7064 15.2289H19.7731C20.218 14.5392 21.3299 13.4946 23.1316 13.4946C25.3554 13.4946 27.0236 14.9627 27.0236 18.1644V24.6159H23.6432V18.588C23.6432 17.1859 23.1543 16.2301 21.9309 16.2301C20.9964 16.2301 20.4408 16.8751 20.2187 17.4974C20.1293 17.7202 20.0853 18.031 20.0853 18.3432V24.6159H16.7048V17.2086H16.7035Z" fill="white"/>
</svg>
