<svg width="37" height="36" viewBox="0 0 37 36" fill="none" xmlns="http://www.w3.org/2000/svg">
<circle cx="18.0236" cy="18" r="15" fill="#1DA1F2"/>
<path fill-rule="evenodd" clip-rule="evenodd" d="M27.0236 12.2315C26.3619 12.5255 25.6497 12.7234 24.9028 12.8128C25.6653 12.3557 26.2509 11.6321 26.5263 10.77C25.8135 11.1936 25.0222 11.5001 24.1816 11.6663C23.5079 10.9488 22.5473 10.5 21.486 10.5C19.4467 10.5 17.7932 12.1535 17.7932 14.1928C17.7932 14.4819 17.8262 14.7639 17.8892 15.0345C14.8198 14.8809 12.099 13.4104 10.2775 11.1762C9.95956 11.7215 9.77777 12.3557 9.77777 13.0324C9.77777 14.3134 10.4287 15.4437 11.4205 16.106C10.8145 16.0868 10.2457 15.9206 9.74717 15.6441V15.6903C9.74717 17.4799 11.0209 18.972 12.7092 19.3122C12.3996 19.3962 12.0732 19.4418 11.7366 19.4418C11.4985 19.4418 11.2669 19.4184 11.0413 19.3752C11.5111 20.8421 12.8754 21.91 14.4911 21.94C13.2275 22.93 11.6352 23.5209 9.90496 23.5209C9.60618 23.5209 9.3122 23.5035 9.02362 23.4687C10.6579 24.5163 12.5988 25.1282 14.6842 25.1282C21.4764 25.1282 25.1907 19.5012 25.1907 14.6217C25.1907 14.4615 25.1877 14.3019 25.1799 14.1442C25.9023 13.6222 26.5287 12.9718 27.0236 12.2315Z" fill="white"/>
</svg>
